<?xml version="1.0" encoding="utf-8"?>
<!-- Generator: Adobe Illustrator 19.0.0, SVG Export Plug-In . SVG Version: 6.00 Build 0)  -->
<svg version="1.1" id="Layer_1" xmlns="http://www.w3.org/2000/svg" xmlns:xlink="http://www.w3.org/1999/xlink" x="0px" y="0px"
	 viewBox="0 0 174 36" style="enable-background:new 0 0 174 36;" xml:space="preserve">
<style type="text/css">
	.st0{fill:#253138;}
	.st1{fill:#DC4D65;}
	.st2{fill:#F3BB45;}
	.st3{fill:#B1C847;}
	.st4{fill:#4DAAB3;}
	.st5{fill:none;}
	.st6{fill:#CE4966;}
	.st7{fill:#44A0A5;}
	.st8{fill:#E5A93E;}
</style>
<g id="XMLID_24_">
	<path id="XMLID_26_" class="st0" d="M66,14.1c-1.1-1-3-0.8-3.8,0c-0.3,0.3-0.6,0.9-0.6,1.3l0,0v8.9c0,0,0,0,0,0.1
		c0,0.3,0,0.6,0,0.9c-0.1,1.7-0.8,3.2-2.2,4.4c-1.1,1-2.4,1.5-3.9,1.6c-2.1,0.1-3.9-0.6-5.3-2.2c-1-1.1-1.5-2.4-1.6-3.9
		c-0.1-1.8,0.4-3.3,1.5-4.5v0.1c0.6-0.8,1.4-1.4,2.3-1.8c1.6-0.8,3.3-0.8,5-0.2l0,0c0,0,2.3,0.8,3.2-1.5C61.4,15,59,14,59,14l0,0
		c-1.2-0.4-2.4-0.7-3.7-0.7c-0.1,0-0.1,0-0.2,0c-3.2,0-5.8,1.1-8.1,3.3c-2.2,2.2-3.3,4.9-3.3,8.1s1.1,5.8,3.3,8.1
		c2.2,2.2,4.9,3.3,8.1,3.3c2.4,0,4.6-0.7,6.5-2c0.5-0.4,1.1-0.8,1.6-1.3c2.2-2.2,3.3-4.9,3.3-8.1v-9.4C66.5,15,66.3,14.3,66,14.1z"
		/>
	<g id="XMLID_48_">
		<circle id="XMLID_23_" class="st1" cx="64" cy="15.5" r="2.5"/>
		<circle id="XMLID_2_" class="st2" cx="55.1" cy="24.6" r="2.5"/>
	</g>
	<g id="XMLID_1_">
		<path id="XMLID_5_" class="st0" d="M88.6,0c-1.3,0-2.4,1.1-2.4,2.4v12.1c0,0.3-0.3,0.5-0.6,0.3c-1.7-1.1-3.7-1.6-5.9-1.6
			c-3.2,0-5.8,1.1-8.1,3.3c-2.2,2.2-3.3,4.9-3.3,8.1s1.1,5.8,3.3,8.1c2.2,2.2,4.9,3.3,8.1,3.3s5.8-1.1,8.1-3.3
			c2.2-2.2,3.3-4.9,3.3-8.1V2.4C91.1,1.1,90,0,88.6,0z M86.1,25.3c-0.1,1.3-0.6,2.5-1.4,3.5c-1.4,1.7-3.5,2.5-5.7,2.4
			c-1.3-0.1-2.5-0.6-3.5-1.4c-1.7-1.4-2.6-3.5-2.4-5.7c0.1-1.3,0.6-2.5,1.4-3.5c1.4-1.7,3.5-2.5,5.7-2.4c1.3,0.1,2.5,0.6,3.5,1.4
			C85.4,21,86.3,23.2,86.1,25.3z"/>
		<circle id="XMLID_4_" class="st2" cx="88.6" cy="2.4" r="2.5"/>
		<circle id="XMLID_3_" class="st1" cx="79.7" cy="24.6" r="2.5"/>
	</g>
	<g id="XMLID_8_">
		<path id="XMLID_11_" class="st0" d="M113.2,0c-1.3,0-2.4,1.1-2.4,2.4v12.1c0,0.3-0.3,0.5-0.6,0.3c-1.7-1.1-3.7-1.6-5.9-1.6
			c-3.2,0-5.8,1.1-8.1,3.3c-2.2,2.2-3.3,4.9-3.3,8.1s1.1,5.8,3.3,8.1c2.2,2.2,4.9,3.3,8.1,3.3s5.8-1.1,8.1-3.3
			c2.2-2.2,3.3-4.9,3.3-8.1V2.4C115.6,1.1,114.6,0,113.2,0z M110.7,25.3c-0.1,1.3-0.6,2.5-1.4,3.5c-1.4,1.7-3.5,2.5-5.7,2.4
			c-1.3-0.1-2.5-0.6-3.5-1.4c-1.7-1.4-2.6-3.5-2.4-5.7c0.1-1.3,0.6-2.5,1.4-3.5c1.4-1.7,3.5-2.5,5.7-2.4c1.3,0.1,2.5,0.6,3.5,1.4
			C110,21,110.9,23.2,110.7,25.3z"/>
		<circle id="XMLID_10_" class="st2" cx="113.2" cy="2.4" r="2.5"/>
		<circle id="XMLID_9_" class="st1" cx="104.2" cy="24.6" r="2.5"/>
	</g>
	<g id="XMLID_14_">
		<path id="XMLID_16_" class="st0" d="M134.5,13.3L134.5,13.3c-1,0-1.9,0.6-2.3,1.4L127.6,26c-0.1,0.3-0.4,0.4-0.6,0l-4.6-11.3
			c-0.4-0.9-1.3-1.4-2.3-1.4H120c-1.9,0-3.1,2-2.3,3.7l7.2,17.6c0.9,1.9,3.6,1.9,4.6,0l7.2-17.6C137.7,15.3,136.4,13.3,134.5,13.3z"
			/>
		<circle id="XMLID_15_" class="st3" cx="134.5" cy="15.8" r="2.6"/>
	</g>
	<g id="XMLID_17_">
		<path id="XMLID_19_" class="st0" d="M141.3,13.3c-1.3,0-2.4,1.1-2.4,2.4v17.9c0,1.3,1.1,2.4,2.4,2.4s2.4-1.1,2.4-2.4V15.7
			C143.8,14.4,142.7,13.3,141.3,13.3z"/>
		<path id="XMLID_18_" class="st4" d="M141.3,6.8c-0.7,0-1.3,0.2-1.7,0.7c-0.5,0.5-0.7,1.1-0.7,1.7c0,0.7,0.2,1.3,0.7,1.7
			c0.5,0.5,1.1,0.7,1.7,0.7c0.7,0,1.3-0.2,1.7-0.7c0.5-0.5,0.7-1.1,0.7-1.7c0-0.7-0.2-1.3-0.7-1.7C142.6,7,142,6.8,141.3,6.8z"/>
	</g>
	<g id="XMLID_20_">
		<path id="XMLID_22_" class="st0" d="M165,29c-1.9-1.4-3.3,0.3-3.3,0.3l0,0c-1.3,1.3-2.8,1.9-4.6,1.9s-3.3-0.6-4.6-1.9
			s-1.9-2.8-1.9-4.6c0-1.8,0.6-3.3,1.9-4.6c1.3-1.3,2.8-1.9,4.6-1.9s3.3,0.6,4.6,1.9l0,0c0,0,1.7,1.7,3.5,0c1.7-1.6,0-3.5,0-3.5l0,0
			c-2.2-2.2-4.9-3.3-8.1-3.3c-3.2,0-5.8,1.1-8.1,3.3c-2.2,2.2-3.3,4.9-3.3,8.1s1.1,5.8,3.3,8.1c2.2,2.2,4.9,3.3,8.1,3.3
			c3.2,0,5.8-1.1,8.1-3.3l0,0C165.1,32.7,167,30.4,165,29z"/>
		<circle id="XMLID_21_" class="st3" cx="163.5" cy="18.5" r="2.5"/>
	</g>
	<path id="XMLID_28_" class="st5" d="M61.6,24.2L61.6,24.2v0.9C61.6,24.8,61.6,24.5,61.6,24.2z"/>
</g>
<g id="XMLID_25_">
	<polygon id="XMLID_36_" class="st1" points="5.8,0 11,7.2 22.1,7.1 16.8,0 	"/>
	<polygon id="XMLID_35_" class="st6" points="0.3,7.2 5.8,0 11,7.2 5.8,14.7 	"/>
	<polygon id="XMLID_34_" class="st4" points="16.6,14.3 21.9,21 32.8,21 27.5,14.6 	"/>
	<polygon id="XMLID_33_" class="st7" points="11.2,21.5 16.6,14.3 21.9,21 16.6,28.7 	"/>
	<polygon id="XMLID_32_" class="st2" points="27.5,0 32.7,7 43.7,7 38.4,0 	"/>
	<polygon id="XMLID_31_" class="st8" points="16.6,14.3 27.5,0 32.7,7 27.5,14.6 	"/>
	<polygon id="XMLID_30_" class="st0" points="22.1,7.1 11,7.2 5.8,14.7 11.2,21.5 	"/>
	<polygon id="XMLID_29_" class="st0" points="16.6,28.7 22,35.6 32.8,21 21.9,21 	"/>
	<polygon id="XMLID_27_" class="st0" points="32.7,7 43.7,7 32.8,21 27.5,14.6 	"/>
</g>
<g id="XMLID_38_">
	<path id="XMLID_39_" class="st0" d="M169.4,7.5h-1.3V11h-0.8V7.5H166V6.8h3.4V7.5z"/>
	<path id="XMLID_41_" class="st0" d="M171.1,6.8l1.1,3.1l1-3.1h1.1V11h-0.8V9.9l0.1-2l-1.2,3.1h-0.6l-1.1-3.1l0.1,2V11h-0.8V6.8
		H171.1z"/>
</g>
</svg>
